<?xml version="1.0" encoding="UTF-8"?>
<svg xmlns="http://www.w3.org/2000/svg" xmlns:xlink="http://www.w3.org/1999/xlink" width="100px" height="21px" viewBox="0 0 101 21" version="1.1">
<g id="surface1">
<path style=" stroke:none;fill-rule:nonzero;fill:rgb(0%,0%,0%);fill-opacity:1;" d="M 6.402344 0.457031 C 6.550781 0.707031 6.949219 1.421875 7.277344 2.035156 C 7.960938 3.308594 8.359375 3.921875 8.957031 4.644531 C 10.277344 6.238281 12.523438 7.589844 14.886719 8.199219 C 16.152344 8.53125 17.769531 8.449219 18.703125 8.007812 C 19.828125 7.46875 20.453125 6.121094 20.105469 4.960938 C 19.984375 4.558594 19.285156 3.117188 18.515625 1.703125 C 17.75 0.285156 17.820312 0.335938 16.382812 0.242188 C 15.804688 0.203125 15.320312 0.183594 15.300781 0.203125 C 15.28125 0.222656 15.472656 0.613281 15.722656 1.070312 C 15.96875 1.523438 16.167969 1.910156 16.152344 1.921875 C 16.140625 1.933594 15.886719 1.902344 15.59375 1.847656 C 15.238281 1.785156 14.640625 1.753906 13.824219 1.753906 C 12.519531 1.746094 11.734375 1.859375 10.964844 2.152344 C 10.78125 2.21875 10.628906 2.277344 10.625 2.277344 C 10.617188 2.277344 10.429688 1.917969 10.195312 1.46875 C 9.765625 0.640625 9.5625 0.375 9.261719 0.214844 C 9.101562 0.125 7.492188 0.0117188 6.425781 0 L 6.125 0 Z M 15.527344 3.953125 C 15.824219 4.011719 16.273438 4.113281 16.527344 4.1875 C 16.96875 4.3125 16.988281 4.328125 16.949219 4.484375 C 16.886719 4.738281 16.671875 5.046875 16.445312 5.226562 C 15.789062 5.722656 14.425781 5.671875 13.226562 5.097656 C 12.695312 4.84375 11.867188 4.246094 11.867188 4.113281 C 11.867188 4.042969 12.222656 3.941406 12.730469 3.859375 C 13.257812 3.777344 14.898438 3.832031 15.527344 3.953125 Z M 15.527344 3.953125 "/>
<path style=" stroke:none;fill-rule:nonzero;fill:rgb(0%,0%,0%);fill-opacity:1;" d="M 4.828125 0.5625 C 4.722656 0.625 4.519531 0.859375 4.375 1.082031 C 3.78125 2.003906 1.90625 5.125 1.945312 5.125 C 1.96875 5.125 2.183594 4.964844 2.425781 4.769531 C 3.371094 4.003906 4.332031 3.757812 5.335938 4.015625 C 6.160156 4.238281 7.09375 4.960938 7.683594 5.832031 C 8.230469 6.660156 8.800781 8.222656 9.039062 9.539062 C 9.222656 10.589844 9.222656 12.316406 9.03125 13.378906 C 8.703125 15.226562 8.15625 16.507812 6.765625 18.691406 C 6.25 19.507812 6.160156 19.683594 6.136719 19.960938 C 6.109375 20.253906 6.128906 20.304688 6.304688 20.511719 C 6.417969 20.640625 6.597656 20.765625 6.710938 20.796875 C 6.824219 20.835938 7.683594 20.878906 8.617188 20.898438 C 9.558594 20.917969 10.699219 20.957031 11.167969 20.980469 C 12.042969 21.019531 12.222656 20.960938 11.648438 20.816406 C 10.167969 20.445312 9.152344 19.164062 9.152344 17.679688 C 9.152344 17.242188 9.40625 16.261719 9.652344 15.75 C 10.074219 14.863281 11.34375 13.339844 12.328125 12.53125 C 13.640625 11.460938 15.097656 10.722656 16.695312 10.316406 C 18.148438 9.949219 19.390625 9.84375 21.230469 9.925781 C 22.65625 9.988281 22.914062 9.957031 23.078125 9.710938 C 23.136719 9.628906 23.191406 9.394531 23.210938 9.191406 C 23.242188 8.847656 23.222656 8.785156 22.976562 8.316406 C 22.585938 7.578125 20.566406 4.035156 20.546875 4.0625 C 20.539062 4.074219 20.585938 4.390625 20.65625 4.777344 C 21.007812 6.785156 20.25 8.101562 18.355469 8.773438 C 17.726562 8.996094 16.300781 9.050781 15.328125 8.886719 C 13.148438 8.527344 10.636719 7.191406 8.964844 5.503906 C 8.238281 4.777344 7.726562 4.074219 7.195312 3.097656 C 5.761719 0.457031 5.757812 0.441406 5.285156 0.441406 C 5.136719 0.441406 4.929688 0.492188 4.828125 0.5625 Z M 4.828125 0.5625 "/>
<path style=" stroke:none;fill-rule:nonzero;fill:rgb(0%,0%,0%);fill-opacity:1;" d="M 40.019531 4.175781 L 40.019531 6.324219 L 38.328125 6.324219 L 37.957031 6.007812 C 37.488281 5.609375 36.828125 5.28125 36.050781 5.074219 C 35.496094 4.925781 35.335938 4.910156 34.183594 4.910156 C 32.773438 4.910156 32.484375 4.953125 31.449219 5.351562 C 30.191406 5.839844 29.1875 6.742188 28.652344 7.875 C 28.464844 8.265625 28.210938 9.164062 28.261719 9.246094 C 28.273438 9.277344 29.039062 9.296875 29.960938 9.296875 C 31.242188 9.296875 31.632812 9.277344 31.652344 9.214844 C 31.882812 8.316406 32.175781 7.90625 32.789062 7.589844 C 33.210938 7.375 33.242188 7.367188 33.953125 7.367188 C 34.59375 7.367188 34.726562 7.386719 34.984375 7.515625 C 35.394531 7.71875 35.570312 7.976562 35.570312 8.382812 C 35.570312 9.132812 35.054688 9.4375 32.476562 10.210938 C 30.855469 10.695312 30.578125 10.796875 29.851562 11.171875 C 28.703125 11.765625 28.109375 12.570312 28.046875 13.613281 C 27.925781 15.472656 29.121094 16.738281 31.246094 17.015625 C 32.730469 17.210938 34.199219 16.84375 35.21875 16.027344 L 35.570312 15.75 L 35.601562 16.304688 L 35.632812 16.855469 L 39.296875 16.855469 L 39.296875 8.855469 L 40.015625 8.855469 L 40.035156 12.378906 C 40.054688 15.820312 40.058594 15.914062 40.191406 16.269531 C 40.59375 17.332031 41.335938 17.835938 42.683594 17.964844 C 43.007812 17.996094 44.128906 18.027344 45.183594 18.027344 L 47.089844 18.027344 L 47.089844 15.445312 L 45.785156 15.421875 C 44.363281 15.402344 44.261719 15.375 43.933594 15.023438 L 43.777344 14.851562 L 43.757812 11.855469 L 43.738281 8.855469 L 47.089844 8.855469 L 47.089844 6.324219 L 43.746094 6.324219 L 43.746094 2.023438 L 40.019531 2.023438 Z M 35.601562 12.519531 L 35.601562 13.847656 L 35.367188 14.042969 C 35.066406 14.289062 34.578125 14.527344 34.144531 14.644531 C 33.746094 14.75 32.832031 14.761719 32.492188 14.667969 C 32.136719 14.574219 31.785156 14.226562 31.703125 13.898438 C 31.585938 13.449219 31.71875 13.054688 32.097656 12.71875 C 32.421875 12.441406 32.792969 12.265625 33.871094 11.890625 C 34.390625 11.707031 34.972656 11.488281 35.160156 11.390625 C 35.351562 11.289062 35.527344 11.207031 35.558594 11.207031 C 35.582031 11.203125 35.601562 11.789062 35.601562 12.519531 Z M 35.601562 12.519531 "/>
<path style=" stroke:none;fill-rule:nonzero;fill:rgb(0%,0%,0%);fill-opacity:1;" d="M 54.066406 2.09375 C 52.867188 2.269531 51.972656 2.882812 51.472656 3.871094 C 51.265625 4.289062 51.074219 5.097656 51.023438 5.800781 L 50.984375 6.386719 L 49.363281 6.386719 L 49.363281 9.046875 L 51.003906 9.046875 L 51.003906 18.027344 L 54.539062 18.027344 L 54.539062 9.046875 L 56.9375 9.046875 L 56.9375 6.386719 L 54.539062 6.386719 L 54.539062 6.003906 C 54.539062 5.1875 54.816406 4.789062 55.457031 4.710938 C 55.777344 4.667969 55.980469 4.679688 56.535156 4.78125 C 56.761719 4.828125 56.691406 4.945312 57.230469 3.460938 C 57.425781 2.910156 57.578125 2.449219 57.558594 2.433594 C 57.539062 2.417969 57.3125 2.347656 57.050781 2.285156 C 56.144531 2.050781 54.914062 1.972656 54.066406 2.09375 Z M 54.066406 2.09375 "/>
<path style=" stroke:none;fill-rule:nonzero;fill:rgb(0%,0%,0%);fill-opacity:1;" d="M 3.902344 4.609375 C 2.796875 4.964844 2.234375 5.585938 0.714844 8.128906 C 0.113281 9.140625 0 9.386719 0 9.714844 C 0 9.90625 0.535156 11.0625 0.894531 11.652344 L 1.042969 11.886719 L 1.390625 11.324219 C 1.578125 11.011719 1.734375 10.765625 1.742188 10.773438 C 1.75 10.777344 1.898438 11.070312 2.082031 11.417969 C 2.847656 12.898438 3.59375 13.800781 4.910156 14.84375 L 5.0625 14.964844 L 4.5625 15.75 L 4.070312 16.539062 L 4.070312 16.984375 C 4.078125 17.417969 4.078125 17.433594 4.695312 18.566406 C 5.039062 19.191406 5.339844 19.730469 5.367188 19.753906 C 5.390625 19.777344 5.5625 19.550781 5.746094 19.246094 C 5.925781 18.945312 6.34375 18.261719 6.660156 17.742188 C 7.683594 16.074219 8.078125 15.148438 8.371094 13.769531 C 8.824219 11.574219 8.507812 8.710938 7.625 6.925781 C 6.683594 5.042969 5.285156 4.167969 3.902344 4.609375 Z M 4.765625 8.355469 C 5.542969 8.714844 6.160156 9.90625 6.289062 11.257812 C 6.34375 11.867188 6.148438 13.03125 5.984375 13.03125 C 5.953125 13.03125 5.675781 12.785156 5.371094 12.472656 C 4.742188 11.839844 4.210938 11.070312 3.789062 10.160156 C 3.507812 9.5625 3.132812 8.597656 3.167969 8.578125 C 3.179688 8.570312 3.25 8.515625 3.328125 8.449219 C 3.523438 8.285156 4.019531 8.160156 4.292969 8.203125 C 4.414062 8.222656 4.628906 8.285156 4.765625 8.355469 Z M 4.765625 8.355469 "/>
<path style=" stroke:none;fill-rule:nonzero;fill:rgb(0%,0%,0%);fill-opacity:1;" d="M 70.566406 5.472656 C 68.382812 5.8125 67.070312 7.230469 67.347656 8.929688 C 67.488281 9.792969 67.917969 10.347656 68.789062 10.804688 C 69.347656 11.09375 69.972656 11.285156 71.433594 11.605469 C 73.320312 12.023438 73.792969 12.285156 73.792969 12.929688 C 73.792969 13.453125 73.195312 13.789062 72.242188 13.789062 C 71.179688 13.789062 70.554688 13.367188 70.21875 12.410156 L 70.101562 12.082031 L 68.667969 12.082031 C 67.480469 12.082031 67.226562 12.09375 67.226562 12.167969 C 67.226562 12.367188 67.507812 13.148438 67.71875 13.5625 C 68.476562 15.023438 70.09375 15.8125 72.296875 15.8125 C 74.878906 15.8125 76.691406 14.585938 76.804688 12.757812 C 76.898438 11.285156 76.027344 10.308594 74.140625 9.777344 C 73.832031 9.691406 73.105469 9.519531 72.535156 9.394531 C 71.285156 9.113281 70.875 8.96875 70.578125 8.699219 C 70.09375 8.25 70.390625 7.628906 71.179688 7.464844 C 71.957031 7.300781 72.828125 7.496094 73.277344 7.925781 C 73.496094 8.132812 73.792969 8.652344 73.792969 8.824219 C 73.792969 8.90625 73.984375 8.917969 75.25 8.917969 L 76.710938 8.917969 L 76.664062 8.710938 C 76.640625 8.601562 76.546875 8.324219 76.457031 8.097656 C 75.933594 6.75 74.816406 5.871094 73.195312 5.535156 C 72.523438 5.394531 71.253906 5.363281 70.566406 5.472656 Z M 70.566406 5.472656 "/>
<path style=" stroke:none;fill-rule:nonzero;fill:rgb(0%,0%,0%);fill-opacity:1;" d="M 84.996094 5.414062 C 84.042969 5.554688 83.351562 5.800781 82.695312 6.222656 C 81.960938 6.703125 81.46875 7.28125 81.085938 8.117188 C 80.699219 8.945312 80.648438 9.261719 80.640625 10.59375 C 80.640625 11.65625 80.660156 11.855469 80.789062 12.289062 C 81.28125 14.003906 82.332031 15.074219 84.0625 15.605469 C 84.585938 15.761719 84.6875 15.773438 85.820312 15.773438 C 86.855469 15.773438 87.085938 15.757812 87.523438 15.636719 C 89.871094 14.996094 91.191406 13.011719 91.070312 10.308594 C 91.027344 9.34375 90.867188 8.714844 90.484375 7.917969 C 90.257812 7.4375 90.105469 7.234375 89.683594 6.8125 C 89.257812 6.382812 89.058594 6.238281 88.5625 5.988281 C 87.71875 5.566406 87.148438 5.433594 86.070312 5.40625 C 85.585938 5.394531 85.105469 5.402344 84.996094 5.414062 Z M 86.476562 7.691406 C 86.898438 7.8125 87.363281 8.234375 87.585938 8.691406 C 87.8125 9.160156 87.933594 9.796875 87.933594 10.574219 C 87.933594 12.484375 87.28125 13.503906 86 13.585938 C 84.550781 13.679688 83.753906 12.636719 83.746094 10.625 C 83.746094 9.59375 83.910156 8.925781 84.308594 8.335938 C 84.746094 7.710938 85.640625 7.4375 86.476562 7.691406 Z M 86.476562 7.691406 "/>
<path style=" stroke:none;fill-rule:nonzero;fill:rgb(0%,0%,0%);fill-opacity:1;" d="M 96.40625 5.566406 C 95.828125 5.71875 95.332031 5.996094 94.894531 6.40625 L 94.5625 6.722656 L 94.5625 5.628906 L 91.34375 5.628906 L 91.34375 15.558594 L 94.5625 15.558594 L 94.5625 8.425781 L 94.820312 8.191406 C 95.34375 7.71875 96.0625 7.550781 96.746094 7.75 C 97.195312 7.875 97.585938 8.242188 97.703125 8.648438 C 97.761719 8.832031 97.78125 9.792969 97.78125 12.234375 L 97.78125 15.558594 L 101.007812 15.558594 L 100.988281 11.808594 C 100.960938 8.152344 100.960938 8.050781 100.824219 7.648438 C 100.558594 6.855469 100.054688 6.238281 99.363281 5.855469 C 98.609375 5.445312 97.339844 5.320312 96.40625 5.566406 Z M 96.40625 5.566406 "/>
<path style=" stroke:none;fill-rule:nonzero;fill:rgb(0%,0%,0%);fill-opacity:1;" d="M 57.378906 9.347656 C 57.378906 13.378906 57.386719 13.429688 57.734375 14.117188 C 57.828125 14.300781 58.0625 14.613281 58.257812 14.808594 C 58.902344 15.445312 59.753906 15.769531 60.851562 15.769531 C 61.867188 15.769531 62.753906 15.460938 63.410156 14.851562 L 63.757812 14.535156 L 63.757812 15.558594 L 66.976562 15.558594 L 66.964844 10.609375 L 66.945312 5.660156 L 65.351562 5.640625 L 63.757812 5.628906 L 63.757812 12.828125 L 63.523438 13.03125 C 62.804688 13.664062 61.539062 13.699219 60.964844 13.113281 C 60.53125 12.667969 60.535156 12.707031 60.535156 8.976562 L 60.535156 5.628906 L 57.378906 5.628906 Z M 57.378906 9.347656 "/>
<path style=" stroke:none;fill-rule:nonzero;fill:rgb(0%,0%,0%);fill-opacity:1;" d="M 77.140625 10.59375 L 77.140625 15.558594 L 80.296875 15.558594 L 80.296875 5.628906 L 77.140625 5.628906 Z M 77.140625 10.59375 "/>
<path style=" stroke:none;fill-rule:nonzero;fill:rgb(0%,0%,0%);fill-opacity:1;" d="M 18.589844 10.539062 C 16.121094 10.777344 13.578125 12.023438 11.640625 13.949219 C 10.554688 15.027344 9.839844 16.363281 9.738281 17.488281 C 9.625 18.855469 10.554688 19.976562 12.101562 20.34375 C 12.585938 20.460938 15.984375 20.5625 16.476562 20.480469 C 16.949219 20.394531 17.15625 20.195312 17.6875 19.34375 C 17.953125 18.914062 18.191406 18.507812 18.21875 18.449219 C 18.253906 18.355469 18.191406 18.34375 17.554688 18.34375 C 17.171875 18.34375 16.855469 18.332031 16.855469 18.3125 C 16.855469 18.292969 16.988281 18.117188 17.152344 17.914062 C 17.859375 17.039062 18.566406 15.789062 18.867188 14.863281 C 18.9375 14.636719 19.050781 14.199219 19.113281 13.882812 L 19.226562 13.320312 L 20.042969 13.339844 C 20.835938 13.351562 20.875 13.351562 21.210938 13.175781 C 21.507812 13.015625 21.601562 12.917969 21.890625 12.453125 C 22.339844 11.734375 23.039062 10.570312 23.039062 10.550781 C 23.039062 10.519531 18.867188 10.511719 18.589844 10.539062 Z M 16.972656 13.914062 C 16.660156 15.054688 15.9375 16.21875 14.878906 17.3125 C 14.5 17.703125 14.144531 18.027344 14.101562 18.027344 C 13.957031 18.027344 13.558594 17.628906 13.4375 17.363281 C 13.097656 16.617188 13.4375 15.691406 14.425781 14.699219 C 14.898438 14.21875 15.082031 14.082031 15.535156 13.859375 C 16.089844 13.59375 16.972656 13.328125 17.054688 13.402344 C 17.082031 13.429688 17.042969 13.65625 16.972656 13.914062 Z M 16.972656 13.914062 "/>
</g>
</svg>
