<?xml version="1.0" standalone="no"?>
<!DOCTYPE svg PUBLIC "-//W3C//DTD SVG 20010904//EN"
 "http://www.w3.org/TR/2001/REC-SVG-20010904/DTD/svg10.dtd">
<svg version="1.0" xmlns="http://www.w3.org/2000/svg"
 width="396.000000pt" height="396.000000pt" viewBox="0 0 396.000000 396.000000"
 preserveAspectRatio="xMidYMid meet">

<g transform="translate(0.000000,396.000000) scale(0.100000,-0.100000)"
fill="#000000" stroke="none">
<path d="M156 3595 c-75 -26 -126 -81 -146 -155 -6 -24 -9 -209 -8 -491 l3
-454 22 -3 23 -3 0 463 c0 428 2 466 19 503 22 48 44 69 94 90 30 12 86 15
311 15 223 0 275 3 279 14 13 33 -14 36 -287 36 -206 -1 -280 -4 -310 -15z"/>
<path d="M3382 3597 c-16 -19 -1 -33 42 -40 50 -8 100 -43 125 -88 19 -34 21
-53 21 -247 0 -171 3 -212 15 -222 31 -26 35 0 35 218 0 190 -3 222 -19 257
-25 53 -76 101 -130 120 -53 18 -75 19 -89 2z"/>
<path d="M325 3396 c-37 -16 -92 -77 -102 -114 -5 -15 -8 -502 -8 -1082 l0
-1055 27 -45 c15 -27 42 -54 66 -68 l40 -22 531 0 531 0 -5 -22 c-4 -13 -19
-68 -34 -123 l-28 -100 -553 -3 c-373 -1 -557 -6 -566 -13 -7 -6 -10 -17 -7
-25 4 -12 88 -14 555 -14 l551 0 -6 -33 c-3 -19 -15 -66 -27 -105 l-21 -72
-214 0 -215 0 0 -65 0 -65 975 0 975 0 0 65 0 65 -214 0 c-136 0 -217 4 -221
10 -7 11 -55 179 -55 193 0 4 250 7 555 7 305 0 555 4 555 8 0 5 -6 16 -12 25
-12 16 -55 17 -563 15 l-550 -3 -32 115 c-18 63 -33 121 -33 128 0 9 113 12
532 12 l531 0 43 25 c28 16 49 39 63 68 20 41 21 59 21 360 l0 317 -85 0 -85
0 0 -110 0 -110 -1425 0 -1425 0 0 840 0 840 1425 0 1425 0 0 -565 0 -565 90
0 91 0 -3 588 -3 588 -28 43 c-18 27 -44 50 -70 62 -41 18 -89 19 -1502 18
-1184 0 -1466 -2 -1490 -13z m1844 -2418 c23 -73 121 -447 121 -462 0 -15 -44
-16 -480 -16 -264 0 -480 3 -480 8 0 12 130 484 136 493 3 5 160 9 349 9 l343
0 11 -32z"/>
<path d="M613 2144 c-3 -8 -1 -20 4 -25 5 -5 204 -8 504 -7 486 3 494 3 494
23 0 20 -8 20 -498 23 -445 2 -498 1 -504 -14z"/>
<path d="M613 1994 c-3 -8 -1 -20 4 -25 5 -5 204 -8 504 -7 486 3 494 3 494
23 0 20 -8 20 -498 23 -445 2 -498 1 -504 -14z"/>
<path d="M174 176 c-3 -8 -3 -20 1 -26 4 -7 353 -10 1116 -10 l1110 0 -3 23
-3 22 -1108 3 c-962 2 -1108 0 -1113 -12z"/>
<path d="M92 28 l3 -23 375 0 c368 0 375 0 375 20 0 20 -8 20 -378 23 l-378 2
3 -22z"/>
<path d="M1455 40 c-4 -6 -1 -17 5 -25 11 -13 116 -15 779 -13 l766 3 3 23 3
22 -775 0 c-527 0 -777 -3 -781 -10z"/>
<path d="M3122 28 c3 -22 6 -23 118 -23 108 0 115 1 115 20 0 19 -8 20 -118
23 -118 3 -118 3 -115 -20z"/>
</g>
</svg>
